Coordinates
version=1
nRows=21
nColumns=12
inDegrees=yes

Units are S.I. units (second, meters, Newtons, ...)
Angles are in degrees

endheader
time	SC_y	SC_z	SC_x	AC_y	AC_z	AC_x	GH_y	GH_z	GH_yy	EL_x	PS_y
       0.0              -42.06          37.97          62.73          68.43         -11.47         -9.943         -18.02          49.87         -64.26          134.6          56.95
   0.02679              -42.06          37.97          62.73          68.43         -11.47         -9.943         -18.03          49.87         -64.25          134.6          56.95
   0.05358              -42.06          37.97          62.72          68.43         -11.47         -9.942         -18.05          49.86         -64.25          134.6          56.95
   0.08037              -42.06          37.96          62.71          68.43         -11.47         -9.941         -18.08          49.86         -64.24          134.6          56.95
    0.1072              -42.06          37.96          62.71          68.43         -11.47          -9.94          -18.1          49.86         -64.24          134.5          56.95
    0.1339              -42.06          37.96           62.7          68.43         -11.47          -9.94         -18.12          49.85         -64.23          134.5          56.95
    0.1607              -42.06          37.95          62.69          68.43         -11.47         -9.939         -18.15          49.85         -64.23          134.5          56.95
    0.1875              -42.06          37.95          62.68          68.43         -11.47         -9.938         -18.18          49.84         -64.22          134.5          56.95
    0.2143              -42.06          37.94          62.67          68.43         -11.47         -9.937         -18.21          49.84         -64.21          134.4          56.94
    0.2411              -42.06          37.94          62.66          68.42         -11.47         -9.935         -18.24          49.83         -64.21          134.4          56.94
    0.2679              -42.06          37.93          62.65          68.42         -11.47         -9.934         -18.27          49.82          -64.2          134.4          56.94
    0.2947              -42.05          37.93          62.64          68.42         -11.46         -9.933         -18.31          49.82         -64.19          134.4          56.94
    0.3215              -42.05          37.92          62.62          68.42         -11.46         -9.931         -18.35          49.81         -64.18          134.3          56.94
    0.3482              -42.05          37.91          62.61          68.42         -11.46          -9.93         -18.39           49.8         -64.17          134.3          56.94
     0.375              -42.05           37.9          62.59          68.41         -11.46         -9.928         -18.44          49.79         -64.16          134.3          56.93
    0.4018              -42.05           37.9          62.58          68.41         -11.46         -9.926         -18.49          49.78         -64.15          134.2          56.93
    0.4286              -42.05          37.89          62.56          68.41         -11.46         -9.925         -18.54          49.77         -64.14          134.2          56.93
    0.4554              -42.05          37.88          62.54          68.41         -11.46         -9.922          -18.6          49.76         -64.12          134.1          56.93
    0.4822              -42.04          37.87          62.52           68.4         -11.45          -9.92         -18.66          49.75         -64.11          134.1          56.92
     0.509              -42.04          37.85          62.49           68.4         -11.45         -9.918         -18.74          49.73         -64.09          134.0          56.92
    0.5358              -42.04          37.84          62.47           68.4         -11.45         -9.915         -18.81          49.72         -64.07          134.0          56.92
